<svg xmlns="http://www.w3.org/2000/svg" version="1.1" xmlns:xlink="http://www.w3.org/1999/xlink" xmlns:svgjs="http://svgjs.com/svgjs" width="1920" height="1080" preserveAspectRatio="none" viewBox="0 0 1920 1080"><g mask="url(&quot;#SvgjsMask1069&quot;)" fill="none"><rect width="1920" height="1080" x="0" y="0" fill="rgba(13, 27, 30, 1)"></rect><path d="M263.36 -47.68L328.31 -10.18L328.31 64.82L263.36 102.32L198.4 64.82L198.4 -10.18zM523.17 177.32L588.12 214.82L588.12 289.82L523.17 327.32L458.22 289.82L458.22 214.82zM523.17 1077.32L588.12 1114.82L588.12 1189.82L523.17 1227.32L458.22 1189.82L458.22 1114.82zM912.89 177.32L977.85 214.82L977.85 289.82L912.89 327.32L847.94 289.82L847.94 214.82zM1302.62 -47.68L1367.57 -10.18L1367.57 64.82L1302.62 102.32L1237.66 64.82L1237.66 -10.18zM1367.57 64.82L1432.52 102.32L1432.52 177.32L1367.57 214.82L1302.62 177.32L1302.62 102.32zM1302.62 177.32L1367.57 214.82L1367.57 289.82L1302.62 327.32L1237.66 289.82L1237.66 214.82zM1367.57 964.82L1432.52 1002.32L1432.52 1077.32L1367.57 1114.82L1302.62 1077.32L1302.62 1002.32zM1497.48 514.82L1562.43 552.32L1562.43 627.32L1497.48 664.82L1432.52 627.32L1432.52 552.32zM1562.43 177.32L1627.38 214.82L1627.38 289.82L1562.43 327.32L1497.48 289.82L1497.48 214.82zM1757.29 964.82L1822.24 1002.32L1822.24 1077.32L1757.29 1114.82L1692.34 1077.32L1692.34 1002.32z" stroke="rgba(65, 125, 111, 1)" stroke-width="2"></path><path d="M255.86 -47.68 a7.5 7.5 0 1 0 15 0 a7.5 7.5 0 1 0 -15 0zM320.81 -10.18 a7.5 7.5 0 1 0 15 0 a7.5 7.5 0 1 0 -15 0zM320.81 64.82 a7.5 7.5 0 1 0 15 0 a7.5 7.5 0 1 0 -15 0zM255.86 102.32 a7.5 7.5 0 1 0 15 0 a7.5 7.5 0 1 0 -15 0zM190.9 64.82 a7.5 7.5 0 1 0 15 0 a7.5 7.5 0 1 0 -15 0zM190.9 -10.18 a7.5 7.5 0 1 0 15 0 a7.5 7.5 0 1 0 -15 0zM515.67 177.32 a7.5 7.5 0 1 0 15 0 a7.5 7.5 0 1 0 -15 0zM580.62 214.82 a7.5 7.5 0 1 0 15 0 a7.5 7.5 0 1 0 -15 0zM580.62 289.82 a7.5 7.5 0 1 0 15 0 a7.5 7.5 0 1 0 -15 0zM515.67 327.32 a7.5 7.5 0 1 0 15 0 a7.5 7.5 0 1 0 -15 0zM450.72 289.82 a7.5 7.5 0 1 0 15 0 a7.5 7.5 0 1 0 -15 0zM450.72 214.82 a7.5 7.5 0 1 0 15 0 a7.5 7.5 0 1 0 -15 0zM515.67 1077.32 a7.5 7.5 0 1 0 15 0 a7.5 7.5 0 1 0 -15 0zM580.62 1114.82 a7.5 7.5 0 1 0 15 0 a7.5 7.5 0 1 0 -15 0zM580.62 1189.82 a7.5 7.5 0 1 0 15 0 a7.5 7.5 0 1 0 -15 0zM515.67 1227.32 a7.5 7.5 0 1 0 15 0 a7.5 7.5 0 1 0 -15 0zM450.72 1189.82 a7.5 7.5 0 1 0 15 0 a7.5 7.5 0 1 0 -15 0zM450.72 1114.82 a7.5 7.5 0 1 0 15 0 a7.5 7.5 0 1 0 -15 0zM905.39 177.32 a7.5 7.5 0 1 0 15 0 a7.5 7.5 0 1 0 -15 0zM970.35 214.82 a7.5 7.5 0 1 0 15 0 a7.5 7.5 0 1 0 -15 0zM970.35 289.82 a7.5 7.5 0 1 0 15 0 a7.5 7.5 0 1 0 -15 0zM905.39 327.32 a7.5 7.5 0 1 0 15 0 a7.5 7.5 0 1 0 -15 0zM840.44 289.82 a7.5 7.5 0 1 0 15 0 a7.5 7.5 0 1 0 -15 0zM840.44 214.82 a7.5 7.5 0 1 0 15 0 a7.5 7.5 0 1 0 -15 0zM1295.12 -47.68 a7.5 7.5 0 1 0 15 0 a7.5 7.5 0 1 0 -15 0zM1360.07 -10.18 a7.5 7.5 0 1 0 15 0 a7.5 7.5 0 1 0 -15 0zM1360.07 64.82 a7.5 7.5 0 1 0 15 0 a7.5 7.5 0 1 0 -15 0zM1295.12 102.32 a7.5 7.5 0 1 0 15 0 a7.5 7.5 0 1 0 -15 0zM1230.16 64.82 a7.5 7.5 0 1 0 15 0 a7.5 7.5 0 1 0 -15 0zM1230.16 -10.18 a7.5 7.5 0 1 0 15 0 a7.5 7.5 0 1 0 -15 0zM1425.02 102.32 a7.5 7.5 0 1 0 15 0 a7.5 7.5 0 1 0 -15 0zM1425.02 177.32 a7.5 7.5 0 1 0 15 0 a7.5 7.5 0 1 0 -15 0zM1360.07 214.82 a7.5 7.5 0 1 0 15 0 a7.5 7.5 0 1 0 -15 0zM1295.12 177.32 a7.5 7.5 0 1 0 15 0 a7.5 7.5 0 1 0 -15 0zM1360.07 289.82 a7.5 7.5 0 1 0 15 0 a7.5 7.5 0 1 0 -15 0zM1295.12 327.32 a7.5 7.5 0 1 0 15 0 a7.5 7.5 0 1 0 -15 0zM1230.16 289.82 a7.5 7.5 0 1 0 15 0 a7.5 7.5 0 1 0 -15 0zM1230.16 214.82 a7.5 7.5 0 1 0 15 0 a7.5 7.5 0 1 0 -15 0zM1360.07 964.82 a7.5 7.5 0 1 0 15 0 a7.5 7.5 0 1 0 -15 0zM1425.02 1002.32 a7.5 7.5 0 1 0 15 0 a7.5 7.5 0 1 0 -15 0zM1425.02 1077.32 a7.5 7.5 0 1 0 15 0 a7.5 7.5 0 1 0 -15 0zM1360.07 1114.82 a7.5 7.5 0 1 0 15 0 a7.5 7.5 0 1 0 -15 0zM1295.12 1077.32 a7.5 7.5 0 1 0 15 0 a7.5 7.5 0 1 0 -15 0zM1295.12 1002.32 a7.5 7.5 0 1 0 15 0 a7.5 7.5 0 1 0 -15 0zM1489.98 514.82 a7.5 7.5 0 1 0 15 0 a7.5 7.5 0 1 0 -15 0zM1554.93 552.32 a7.5 7.5 0 1 0 15 0 a7.5 7.5 0 1 0 -15 0zM1554.93 627.32 a7.5 7.5 0 1 0 15 0 a7.5 7.5 0 1 0 -15 0zM1489.98 664.82 a7.5 7.5 0 1 0 15 0 a7.5 7.5 0 1 0 -15 0zM1425.02 627.32 a7.5 7.5 0 1 0 15 0 a7.5 7.5 0 1 0 -15 0zM1425.02 552.32 a7.5 7.5 0 1 0 15 0 a7.5 7.5 0 1 0 -15 0zM1554.93 177.32 a7.5 7.5 0 1 0 15 0 a7.5 7.5 0 1 0 -15 0zM1619.88 214.82 a7.5 7.5 0 1 0 15 0 a7.5 7.5 0 1 0 -15 0zM1619.88 289.82 a7.5 7.5 0 1 0 15 0 a7.5 7.5 0 1 0 -15 0zM1554.93 327.32 a7.5 7.5 0 1 0 15 0 a7.5 7.5 0 1 0 -15 0zM1489.98 289.82 a7.5 7.5 0 1 0 15 0 a7.5 7.5 0 1 0 -15 0zM1489.98 214.82 a7.5 7.5 0 1 0 15 0 a7.5 7.5 0 1 0 -15 0zM1749.79 964.82 a7.5 7.5 0 1 0 15 0 a7.5 7.5 0 1 0 -15 0zM1814.74 1002.32 a7.5 7.5 0 1 0 15 0 a7.5 7.5 0 1 0 -15 0zM1814.74 1077.32 a7.5 7.5 0 1 0 15 0 a7.5 7.5 0 1 0 -15 0zM1749.79 1114.82 a7.5 7.5 0 1 0 15 0 a7.5 7.5 0 1 0 -15 0zM1684.84 1077.32 a7.5 7.5 0 1 0 15 0 a7.5 7.5 0 1 0 -15 0zM1684.84 1002.32 a7.5 7.5 0 1 0 15 0 a7.5 7.5 0 1 0 -15 0z" fill="rgba(65, 125, 111, 1)"></path><path d="M48.33 51.86L91.64 76.86L91.64 126.86L48.33 151.86L5.03 126.86L5.03 76.86zM5.03 426.86L48.33 451.86L48.33 501.86L5.03 526.86L-38.27 501.86L-38.27 451.86zM5.03 726.86L48.33 751.86L48.33 801.86L5.03 826.86L-38.27 801.86L-38.27 751.86zM134.94 201.86L178.24 226.86L178.24 276.86L134.94 301.86L91.64 276.86L91.64 226.86zM134.94 351.86L178.24 376.86L178.24 426.86L134.94 451.86L91.64 426.86L91.64 376.86zM134.94 651.86L178.24 676.86L178.24 726.86L134.94 751.86L91.64 726.86L91.64 676.86zM91.64 1026.86L134.94 1051.86L134.94 1101.86L91.64 1126.86L48.33 1101.86L48.33 1051.86zM221.54 351.86L264.84 376.86L264.84 426.86L221.54 451.86L178.24 426.86L178.24 376.86zM178.24 426.86L221.54 451.86L221.54 501.86L178.24 526.86L134.94 501.86L134.94 451.86zM221.54 501.86L264.84 526.86L264.84 576.86L221.54 601.86L178.24 576.86L178.24 526.86zM308.15 201.86L351.45 226.86L351.45 276.86L308.15 301.86L264.84 276.86L264.84 226.86zM308.15 351.86L351.45 376.86L351.45 426.86L308.15 451.86L264.84 426.86L264.84 376.86zM308.15 951.86L351.45 976.86L351.45 1026.86L308.15 1051.86L264.84 1026.86L264.84 976.86zM264.84 1026.86L308.15 1051.86L308.15 1101.86L264.84 1126.86L221.54 1101.86L221.54 1051.86zM351.45 126.86L394.75 151.86L394.75 201.86L351.45 226.86L308.15 201.86L308.15 151.86zM351.45 276.86L394.75 301.86L394.75 351.86L351.45 376.86L308.15 351.86L308.15 301.86zM394.75 501.86L438.06 526.86L438.06 576.86L394.75 601.86L351.45 576.86L351.45 526.86zM394.75 801.86L438.06 826.86L438.06 876.86L394.75 901.86L351.45 876.86L351.45 826.86zM481.36 51.86L524.66 76.86L524.66 126.86L481.36 151.86L438.06 126.86L438.06 76.86zM481.36 201.86L524.66 226.86L524.66 276.86L481.36 301.86L438.06 276.86L438.06 226.86zM438.06 576.86L481.36 601.86L481.36 651.86L438.06 676.86L394.75 651.86L394.75 601.86zM567.96 351.86L611.26 376.86L611.26 426.86L567.96 451.86L524.66 426.86L524.66 376.86zM567.96 501.86L611.26 526.86L611.26 576.86L567.96 601.86L524.66 576.86L524.66 526.86zM567.96 651.86L611.26 676.86L611.26 726.86L567.96 751.86L524.66 726.86L524.66 676.86zM654.57 351.86L697.87 376.86L697.87 426.86L654.57 451.86L611.26 426.86L611.26 376.86zM654.57 501.86L697.87 526.86L697.87 576.86L654.57 601.86L611.26 576.86L611.26 526.86zM654.57 951.86L697.87 976.86L697.87 1026.86L654.57 1051.86L611.26 1026.86L611.26 976.86zM741.17 51.86L784.48 76.86L784.48 126.86L741.17 151.86L697.87 126.86L697.87 76.86zM741.17 351.86L784.48 376.86L784.48 426.86L741.17 451.86L697.87 426.86L697.87 376.86zM741.17 651.86L784.48 676.86L784.48 726.86L741.17 751.86L697.87 726.86L697.87 676.86zM741.17 801.86L784.48 826.86L784.48 876.86L741.17 901.86L697.87 876.86L697.87 826.86zM697.87 1026.86L741.17 1051.86L741.17 1101.86L697.87 1126.86L654.57 1101.86L654.57 1051.86zM827.78 651.86L871.08 676.86L871.08 726.86L827.78 751.86L784.48 726.86L784.48 676.86zM784.48 726.86L827.78 751.86L827.78 801.86L784.48 826.86L741.17 801.86L741.17 751.86zM827.78 801.86L871.08 826.86L871.08 876.86L827.78 901.86L784.48 876.86L784.48 826.86zM914.38 201.86L957.69 226.86L957.69 276.86L914.38 301.86L871.08 276.86L871.08 226.86zM871.08 426.86L914.38 451.86L914.38 501.86L871.08 526.86L827.78 501.86L827.78 451.86zM871.08 726.86L914.38 751.86L914.38 801.86L871.08 826.86L827.78 801.86L827.78 751.86zM914.38 801.86L957.69 826.86L957.69 876.86L914.38 901.86L871.08 876.86L871.08 826.86zM871.08 876.86L914.38 901.86L914.38 951.86L871.08 976.86L827.78 951.86L827.78 901.86zM1000.99 51.86L1044.29 76.86L1044.29 126.86L1000.99 151.86L957.69 126.86L957.69 76.86zM957.69 276.86L1000.99 301.86L1000.99 351.86L957.69 376.86L914.38 351.86L914.38 301.86zM1000.99 651.86L1044.29 676.86L1044.29 726.86L1000.99 751.86L957.69 726.86L957.69 676.86zM957.69 1026.86L1000.99 1051.86L1000.99 1101.86L957.69 1126.86L914.38 1101.86L914.38 1051.86zM1087.59 51.86L1130.89 76.86L1130.89 126.86L1087.59 151.86L1044.29 126.86L1044.29 76.86zM1087.59 951.86L1130.89 976.86L1130.89 1026.86L1087.59 1051.86L1044.29 1026.86L1044.29 976.86zM1174.2 51.86L1217.5 76.86L1217.5 126.86L1174.2 151.86L1130.89 126.86L1130.89 76.86zM1130.89 126.86L1174.2 151.86L1174.2 201.86L1130.89 226.86L1087.59 201.86L1087.59 151.86zM1130.89 426.86L1174.2 451.86L1174.2 501.86L1130.89 526.86L1087.59 501.86L1087.59 451.86zM1130.89 576.86L1174.2 601.86L1174.2 651.86L1130.89 676.86L1087.59 651.86L1087.59 601.86zM1174.2 801.86L1217.5 826.86L1217.5 876.86L1174.2 901.86L1130.89 876.86L1130.89 826.86zM1130.89 876.86L1174.2 901.86L1174.2 951.86L1130.89 976.86L1087.59 951.86L1087.59 901.86zM1174.2 951.86L1217.5 976.86L1217.5 1026.86L1174.2 1051.86L1130.89 1026.86L1130.89 976.86zM1130.89 1026.86L1174.2 1051.86L1174.2 1101.86L1130.89 1126.86L1087.59 1101.86L1087.59 1051.86zM1260.8 951.86L1304.11 976.86L1304.11 1026.86L1260.8 1051.86L1217.5 1026.86L1217.5 976.86zM1347.41 201.86L1390.71 226.86L1390.71 276.86L1347.41 301.86L1304.11 276.86L1304.11 226.86zM1390.71 -23.14L1434.01 1.86L1434.01 51.86L1390.71 76.86L1347.41 51.86L1347.41 1.86zM1434.01 201.86L1477.32 226.86L1477.32 276.86L1434.01 301.86L1390.71 276.86L1390.71 226.86zM1434.01 501.86L1477.32 526.86L1477.32 576.86L1434.01 601.86L1390.71 576.86L1390.71 526.86zM1390.71 576.86L1434.01 601.86L1434.01 651.86L1390.71 676.86L1347.41 651.86L1347.41 601.86zM1434.01 951.86L1477.32 976.86L1477.32 1026.86L1434.01 1051.86L1390.71 1026.86L1390.71 976.86zM1520.62 201.86L1563.92 226.86L1563.92 276.86L1520.62 301.86L1477.32 276.86L1477.32 226.86zM1520.62 351.86L1563.92 376.86L1563.92 426.86L1520.62 451.86L1477.32 426.86L1477.32 376.86zM1520.62 501.86L1563.92 526.86L1563.92 576.86L1520.62 601.86L1477.32 576.86L1477.32 526.86zM1607.22 651.86L1650.53 676.86L1650.53 726.86L1607.22 751.86L1563.92 726.86L1563.92 676.86zM1563.92 876.86L1607.22 901.86L1607.22 951.86L1563.92 976.86L1520.62 951.86L1520.62 901.86zM1693.83 51.86L1737.13 76.86L1737.13 126.86L1693.83 151.86L1650.53 126.86L1650.53 76.86zM1650.53 576.86L1693.83 601.86L1693.83 651.86L1650.53 676.86L1607.22 651.86L1607.22 601.86zM1650.53 726.86L1693.83 751.86L1693.83 801.86L1650.53 826.86L1607.22 801.86L1607.22 751.86zM1650.53 1026.86L1693.83 1051.86L1693.83 1101.86L1650.53 1126.86L1607.22 1101.86L1607.22 1051.86zM1737.13 -23.14L1780.43 1.86L1780.43 51.86L1737.13 76.86L1693.83 51.86L1693.83 1.86zM1780.43 351.86L1823.74 376.86L1823.74 426.86L1780.43 451.86L1737.13 426.86L1737.13 376.86zM1780.43 501.86L1823.74 526.86L1823.74 576.86L1780.43 601.86L1737.13 576.86L1737.13 526.86zM1780.43 651.86L1823.74 676.86L1823.74 726.86L1780.43 751.86L1737.13 726.86L1737.13 676.86zM1737.13 876.86L1780.43 901.86L1780.43 951.86L1737.13 976.86L1693.83 951.86L1693.83 901.86zM1823.74 126.86L1867.04 151.86L1867.04 201.86L1823.74 226.86L1780.43 201.86L1780.43 151.86zM1867.04 201.86L1910.34 226.86L1910.34 276.86L1867.04 301.86L1823.74 276.86L1823.74 226.86zM1823.74 426.86L1867.04 451.86L1867.04 501.86L1823.74 526.86L1780.43 501.86L1780.43 451.86zM1823.74 876.86L1867.04 901.86L1867.04 951.86L1823.74 976.86L1780.43 951.86L1780.43 901.86zM1910.34 -23.14L1953.64 1.86L1953.64 51.86L1910.34 76.86L1867.04 51.86L1867.04 1.86zM1910.34 126.86L1953.64 151.86L1953.64 201.86L1910.34 226.86L1867.04 201.86L1867.04 151.86z" stroke="rgba(41, 51, 92, 1)" stroke-width="2"></path></g><defs><mask id="SvgjsMask1069"><rect width="1920" height="1080" fill="#ffffff"></rect></mask></defs></svg>