<svg xmlns="http://www.w3.org/2000/svg" version="1.1" xmlns:xlink="http://www.w3.org/1999/xlink" xmlns:svgjs="http://svgjs.com/svgjs" width="1920" height="1080" preserveAspectRatio="none" viewBox="0 0 1920 1080"><g mask="url(&quot;#SvgjsMask1028&quot;)" fill="none"><rect width="1920" height="1080" x="0" y="0" fill="rgba(13, 27, 30, 1)"></rect><path d="M448.69 387.24L513.65 424.74L513.65 499.74L448.69 537.24L383.74 499.74L383.74 424.74zM513.65 499.74L578.6 537.24L578.6 612.24L513.65 649.74L448.69 612.24L448.69 537.24zM578.6 837.24L643.55 874.74L643.55 949.74L578.6 987.24L513.65 949.74L513.65 874.74zM643.55 949.74L708.51 987.24L708.51 1062.24L643.55 1099.74L578.6 1062.24L578.6 987.24zM708.51 162.24L773.46 199.74L773.46 274.74L708.51 312.24L643.55 274.74L643.55 199.74zM708.51 837.24L773.46 874.74L773.46 949.74L708.51 987.24L643.55 949.74L643.55 874.74zM838.41 162.24L903.37 199.74L903.37 274.74L838.41 312.24L773.46 274.74L773.46 199.74zM838.41 387.24L903.37 424.74L903.37 499.74L838.41 537.24L773.46 499.74L773.46 424.74zM1228.14 -62.76L1293.09 -25.26L1293.09 49.74L1228.14 87.24L1163.18 49.74L1163.18 -25.26zM1293.09 724.74L1358.04 762.24L1358.04 837.24L1293.09 874.74L1228.14 837.24L1228.14 762.24zM1358.05 -62.76L1423 -25.26L1423 49.74L1358.05 87.24L1293.09 49.74L1293.09 -25.26zM1358.05 837.24L1423 874.74L1423 949.74L1358.05 987.24L1293.09 949.74L1293.09 874.74zM1487.95 -62.76L1552.91 -25.26L1552.91 49.74L1487.95 87.24L1423 49.74L1423 -25.26zM1552.91 949.74L1617.86 987.24L1617.86 1062.24L1552.91 1099.74L1487.95 1062.24L1487.95 987.24zM1487.95 1062.24L1552.91 1099.74L1552.91 1174.74L1487.95 1212.24L1423 1174.74L1423 1099.74zM1812.72 274.74L1877.67 312.24L1877.67 387.24L1812.72 424.74L1747.77 387.24L1747.77 312.24zM1812.72 499.74L1877.67 537.24L1877.67 612.24L1812.72 649.74L1747.77 612.24L1747.77 537.24zM1877.67 612.24L1942.63 649.74L1942.63 724.74L1877.67 762.24L1812.72 724.74L1812.72 649.74z" stroke="rgba(3, 96, 22, 1)" stroke-width="2"></path><path d="M441.19 387.24 a7.5 7.5 0 1 0 15 0 a7.5 7.5 0 1 0 -15 0zM506.15 424.74 a7.5 7.5 0 1 0 15 0 a7.5 7.5 0 1 0 -15 0zM506.15 499.74 a7.5 7.5 0 1 0 15 0 a7.5 7.5 0 1 0 -15 0zM441.19 537.24 a7.5 7.5 0 1 0 15 0 a7.5 7.5 0 1 0 -15 0zM376.24 499.74 a7.5 7.5 0 1 0 15 0 a7.5 7.5 0 1 0 -15 0zM376.24 424.74 a7.5 7.5 0 1 0 15 0 a7.5 7.5 0 1 0 -15 0zM571.1 537.24 a7.5 7.5 0 1 0 15 0 a7.5 7.5 0 1 0 -15 0zM571.1 612.24 a7.5 7.5 0 1 0 15 0 a7.5 7.5 0 1 0 -15 0zM506.15 649.74 a7.5 7.5 0 1 0 15 0 a7.5 7.5 0 1 0 -15 0zM441.19 612.24 a7.5 7.5 0 1 0 15 0 a7.5 7.5 0 1 0 -15 0zM571.1 837.24 a7.5 7.5 0 1 0 15 0 a7.5 7.5 0 1 0 -15 0zM636.05 874.74 a7.5 7.5 0 1 0 15 0 a7.5 7.5 0 1 0 -15 0zM636.05 949.74 a7.5 7.5 0 1 0 15 0 a7.5 7.5 0 1 0 -15 0zM571.1 987.24 a7.5 7.5 0 1 0 15 0 a7.5 7.5 0 1 0 -15 0zM506.15 949.74 a7.5 7.5 0 1 0 15 0 a7.5 7.5 0 1 0 -15 0zM506.15 874.74 a7.5 7.5 0 1 0 15 0 a7.5 7.5 0 1 0 -15 0zM701.01 987.24 a7.5 7.5 0 1 0 15 0 a7.5 7.5 0 1 0 -15 0zM701.01 1062.24 a7.5 7.5 0 1 0 15 0 a7.5 7.5 0 1 0 -15 0zM636.05 1099.74 a7.5 7.5 0 1 0 15 0 a7.5 7.5 0 1 0 -15 0zM571.1 1062.24 a7.5 7.5 0 1 0 15 0 a7.5 7.5 0 1 0 -15 0zM701.01 162.24 a7.5 7.5 0 1 0 15 0 a7.5 7.5 0 1 0 -15 0zM765.96 199.74 a7.5 7.5 0 1 0 15 0 a7.5 7.5 0 1 0 -15 0zM765.96 274.74 a7.5 7.5 0 1 0 15 0 a7.5 7.5 0 1 0 -15 0zM701.01 312.24 a7.5 7.5 0 1 0 15 0 a7.5 7.5 0 1 0 -15 0zM636.05 274.74 a7.5 7.5 0 1 0 15 0 a7.5 7.5 0 1 0 -15 0zM636.05 199.74 a7.5 7.5 0 1 0 15 0 a7.5 7.5 0 1 0 -15 0zM701.01 837.24 a7.5 7.5 0 1 0 15 0 a7.5 7.5 0 1 0 -15 0zM765.96 874.74 a7.5 7.5 0 1 0 15 0 a7.5 7.5 0 1 0 -15 0zM765.96 949.74 a7.5 7.5 0 1 0 15 0 a7.5 7.5 0 1 0 -15 0zM830.91 162.24 a7.5 7.5 0 1 0 15 0 a7.5 7.5 0 1 0 -15 0zM895.87 199.74 a7.5 7.5 0 1 0 15 0 a7.5 7.5 0 1 0 -15 0zM895.87 274.74 a7.5 7.5 0 1 0 15 0 a7.5 7.5 0 1 0 -15 0zM830.91 312.24 a7.5 7.5 0 1 0 15 0 a7.5 7.5 0 1 0 -15 0zM830.91 387.24 a7.5 7.5 0 1 0 15 0 a7.5 7.5 0 1 0 -15 0zM895.87 424.74 a7.5 7.5 0 1 0 15 0 a7.5 7.5 0 1 0 -15 0zM895.87 499.74 a7.5 7.5 0 1 0 15 0 a7.5 7.5 0 1 0 -15 0zM830.91 537.24 a7.5 7.5 0 1 0 15 0 a7.5 7.5 0 1 0 -15 0zM765.96 499.74 a7.5 7.5 0 1 0 15 0 a7.5 7.5 0 1 0 -15 0zM765.96 424.74 a7.5 7.5 0 1 0 15 0 a7.5 7.5 0 1 0 -15 0zM1220.64 -62.76 a7.5 7.5 0 1 0 15 0 a7.5 7.5 0 1 0 -15 0zM1285.59 -25.26 a7.5 7.5 0 1 0 15 0 a7.5 7.5 0 1 0 -15 0zM1285.59 49.74 a7.5 7.5 0 1 0 15 0 a7.5 7.5 0 1 0 -15 0zM1220.64 87.24 a7.5 7.5 0 1 0 15 0 a7.5 7.5 0 1 0 -15 0zM1155.68 49.74 a7.5 7.5 0 1 0 15 0 a7.5 7.5 0 1 0 -15 0zM1155.68 -25.26 a7.5 7.5 0 1 0 15 0 a7.5 7.5 0 1 0 -15 0zM1285.59 724.74 a7.5 7.5 0 1 0 15 0 a7.5 7.5 0 1 0 -15 0zM1350.54 762.24 a7.5 7.5 0 1 0 15 0 a7.5 7.5 0 1 0 -15 0zM1350.54 837.24 a7.5 7.5 0 1 0 15 0 a7.5 7.5 0 1 0 -15 0zM1285.59 874.74 a7.5 7.5 0 1 0 15 0 a7.5 7.5 0 1 0 -15 0zM1220.64 837.24 a7.5 7.5 0 1 0 15 0 a7.5 7.5 0 1 0 -15 0zM1220.64 762.24 a7.5 7.5 0 1 0 15 0 a7.5 7.5 0 1 0 -15 0zM1350.55 -62.76 a7.5 7.5 0 1 0 15 0 a7.5 7.5 0 1 0 -15 0zM1415.5 -25.26 a7.5 7.5 0 1 0 15 0 a7.5 7.5 0 1 0 -15 0zM1415.5 49.74 a7.5 7.5 0 1 0 15 0 a7.5 7.5 0 1 0 -15 0zM1350.55 87.24 a7.5 7.5 0 1 0 15 0 a7.5 7.5 0 1 0 -15 0zM1350.55 837.24 a7.5 7.5 0 1 0 15 0 a7.5 7.5 0 1 0 -15 0zM1415.5 874.74 a7.5 7.5 0 1 0 15 0 a7.5 7.5 0 1 0 -15 0zM1415.5 949.74 a7.5 7.5 0 1 0 15 0 a7.5 7.5 0 1 0 -15 0zM1350.55 987.24 a7.5 7.5 0 1 0 15 0 a7.5 7.5 0 1 0 -15 0zM1285.59 949.74 a7.5 7.5 0 1 0 15 0 a7.5 7.5 0 1 0 -15 0zM1480.45 -62.76 a7.5 7.5 0 1 0 15 0 a7.5 7.5 0 1 0 -15 0zM1545.41 -25.26 a7.5 7.5 0 1 0 15 0 a7.5 7.5 0 1 0 -15 0zM1545.41 49.74 a7.5 7.5 0 1 0 15 0 a7.5 7.5 0 1 0 -15 0zM1480.45 87.24 a7.5 7.5 0 1 0 15 0 a7.5 7.5 0 1 0 -15 0zM1545.41 949.74 a7.5 7.5 0 1 0 15 0 a7.5 7.5 0 1 0 -15 0zM1610.36 987.24 a7.5 7.5 0 1 0 15 0 a7.5 7.5 0 1 0 -15 0zM1610.36 1062.24 a7.5 7.5 0 1 0 15 0 a7.5 7.5 0 1 0 -15 0zM1545.41 1099.74 a7.5 7.5 0 1 0 15 0 a7.5 7.5 0 1 0 -15 0zM1480.45 1062.24 a7.5 7.5 0 1 0 15 0 a7.5 7.5 0 1 0 -15 0zM1480.45 987.24 a7.5 7.5 0 1 0 15 0 a7.5 7.5 0 1 0 -15 0zM1545.41 1174.74 a7.5 7.5 0 1 0 15 0 a7.5 7.5 0 1 0 -15 0zM1480.45 1212.24 a7.5 7.5 0 1 0 15 0 a7.5 7.5 0 1 0 -15 0zM1415.5 1174.74 a7.5 7.5 0 1 0 15 0 a7.5 7.5 0 1 0 -15 0zM1415.5 1099.74 a7.5 7.5 0 1 0 15 0 a7.5 7.5 0 1 0 -15 0zM1805.22 274.74 a7.5 7.5 0 1 0 15 0 a7.5 7.5 0 1 0 -15 0zM1870.17 312.24 a7.5 7.5 0 1 0 15 0 a7.5 7.5 0 1 0 -15 0zM1870.17 387.24 a7.5 7.5 0 1 0 15 0 a7.5 7.5 0 1 0 -15 0zM1805.22 424.74 a7.5 7.5 0 1 0 15 0 a7.5 7.5 0 1 0 -15 0zM1740.27 387.24 a7.5 7.5 0 1 0 15 0 a7.5 7.5 0 1 0 -15 0zM1740.27 312.24 a7.5 7.5 0 1 0 15 0 a7.5 7.5 0 1 0 -15 0zM1805.22 499.74 a7.5 7.5 0 1 0 15 0 a7.5 7.5 0 1 0 -15 0zM1870.17 537.24 a7.5 7.5 0 1 0 15 0 a7.5 7.5 0 1 0 -15 0zM1870.17 612.24 a7.5 7.5 0 1 0 15 0 a7.5 7.5 0 1 0 -15 0zM1805.22 649.74 a7.5 7.5 0 1 0 15 0 a7.5 7.5 0 1 0 -15 0zM1740.27 612.24 a7.5 7.5 0 1 0 15 0 a7.5 7.5 0 1 0 -15 0zM1740.27 537.24 a7.5 7.5 0 1 0 15 0 a7.5 7.5 0 1 0 -15 0zM1935.13 649.74 a7.5 7.5 0 1 0 15 0 a7.5 7.5 0 1 0 -15 0zM1935.13 724.74 a7.5 7.5 0 1 0 15 0 a7.5 7.5 0 1 0 -15 0zM1870.17 762.24 a7.5 7.5 0 1 0 15 0 a7.5 7.5 0 1 0 -15 0zM1805.22 724.74 a7.5 7.5 0 1 0 15 0 a7.5 7.5 0 1 0 -15 0z" fill="rgba(3, 96, 22, 1)"></path><path d="M76.39 221.7L119.7 246.7L119.7 296.7L76.39 321.7L33.09 296.7L33.09 246.7zM33.09 446.7L76.39 471.7L76.39 521.7L33.09 546.7L-10.21 521.7L-10.21 471.7zM76.39 821.7L119.7 846.7L119.7 896.7L76.39 921.7L33.09 896.7L33.09 846.7zM33.09 896.7L76.39 921.7L76.39 971.7L33.09 996.7L-10.21 971.7L-10.21 921.7zM119.7 -3.3L163 21.7L163 71.7L119.7 96.7L76.39 71.7L76.39 21.7zM119.7 146.7L163 171.7L163 221.7L119.7 246.7L76.39 221.7L76.39 171.7zM163 221.7L206.3 246.7L206.3 296.7L163 321.7L119.7 296.7L119.7 246.7zM119.7 296.7L163 321.7L163 371.7L119.7 396.7L76.39 371.7L76.39 321.7zM119.7 446.7L163 471.7L163 521.7L119.7 546.7L76.39 521.7L76.39 471.7zM119.7 1046.7L163 1071.7L163 1121.7L119.7 1146.7L76.39 1121.7L76.39 1071.7zM206.3 -3.3L249.6 21.7L249.6 71.7L206.3 96.7L163 71.7L163 21.7zM206.3 146.7L249.6 171.7L249.6 221.7L206.3 246.7L163 221.7L163 171.7zM249.6 221.7L292.9 246.7L292.9 296.7L249.6 321.7L206.3 296.7L206.3 246.7zM206.3 446.7L249.6 471.7L249.6 521.7L206.3 546.7L163 521.7L163 471.7zM292.9 146.7L336.21 171.7L336.21 221.7L292.9 246.7L249.6 221.7L249.6 171.7zM336.21 371.7L379.51 396.7L379.51 446.7L336.21 471.7L292.9 446.7L292.9 396.7zM292.9 446.7L336.21 471.7L336.21 521.7L292.9 546.7L249.6 521.7L249.6 471.7zM292.9 896.7L336.21 921.7L336.21 971.7L292.9 996.7L249.6 971.7L249.6 921.7zM379.51 -3.3L422.81 21.7L422.81 71.7L379.51 96.7L336.21 71.7L336.21 21.7zM379.51 296.7L422.81 321.7L422.81 371.7L379.51 396.7L336.21 371.7L336.21 321.7zM422.81 521.7L466.12 546.7L466.12 596.7L422.81 621.7L379.51 596.7L379.51 546.7zM422.81 671.7L466.12 696.7L466.12 746.7L422.81 771.7L379.51 746.7L379.51 696.7zM379.51 746.7L422.81 771.7L422.81 821.7L379.51 846.7L336.21 821.7L336.21 771.7zM422.81 821.7L466.12 846.7L466.12 896.7L422.81 921.7L379.51 896.7L379.51 846.7zM379.51 896.7L422.81 921.7L422.81 971.7L379.51 996.7L336.21 971.7L336.21 921.7zM466.12 446.7L509.42 471.7L509.42 521.7L466.12 546.7L422.81 521.7L422.81 471.7zM509.42 521.7L552.72 546.7L552.72 596.7L509.42 621.7L466.12 596.7L466.12 546.7zM509.42 671.7L552.72 696.7L552.72 746.7L509.42 771.7L466.12 746.7L466.12 696.7zM596.02 221.7L639.33 246.7L639.33 296.7L596.02 321.7L552.72 296.7L552.72 246.7zM552.72 296.7L596.02 321.7L596.02 371.7L552.72 396.7L509.42 371.7L509.42 321.7zM596.02 521.7L639.33 546.7L639.33 596.7L596.02 621.7L552.72 596.7L552.72 546.7zM639.33 -3.3L682.63 21.7L682.63 71.7L639.33 96.7L596.02 71.7L596.02 21.7zM682.63 371.7L725.93 396.7L725.93 446.7L682.63 471.7L639.33 446.7L639.33 396.7zM639.33 896.7L682.63 921.7L682.63 971.7L639.33 996.7L596.02 971.7L596.02 921.7zM725.93 296.7L769.23 321.7L769.23 371.7L725.93 396.7L682.63 371.7L682.63 321.7zM769.23 971.7L812.54 996.7L812.54 1046.7L769.23 1071.7L725.93 1046.7L725.93 996.7zM725.93 1046.7L769.23 1071.7L769.23 1121.7L725.93 1146.7L682.63 1121.7L682.63 1071.7zM812.54 -3.3L855.84 21.7L855.84 71.7L812.54 96.7L769.23 71.7L769.23 21.7zM855.84 71.7L899.14 96.7L899.14 146.7L855.84 171.7L812.54 146.7L812.54 96.7zM855.84 221.7L899.14 246.7L899.14 296.7L855.84 321.7L812.54 296.7L812.54 246.7zM812.54 896.7L855.84 921.7L855.84 971.7L812.54 996.7L769.23 971.7L769.23 921.7zM942.44 71.7L985.75 96.7L985.75 146.7L942.44 171.7L899.14 146.7L899.14 96.7zM899.14 146.7L942.44 171.7L942.44 221.7L899.14 246.7L855.84 221.7L855.84 171.7zM899.14 446.7L942.44 471.7L942.44 521.7L899.14 546.7L855.84 521.7L855.84 471.7zM942.44 521.7L985.75 546.7L985.75 596.7L942.44 621.7L899.14 596.7L899.14 546.7zM899.14 596.7L942.44 621.7L942.44 671.7L899.14 696.7L855.84 671.7L855.84 621.7zM942.44 671.7L985.75 696.7L985.75 746.7L942.44 771.7L899.14 746.7L899.14 696.7zM899.14 746.7L942.44 771.7L942.44 821.7L899.14 846.7L855.84 821.7L855.84 771.7zM942.44 971.7L985.75 996.7L985.75 1046.7L942.44 1071.7L899.14 1046.7L899.14 996.7zM899.14 1046.7L942.44 1071.7L942.44 1121.7L899.14 1146.7L855.84 1121.7L855.84 1071.7zM985.75 146.7L1029.05 171.7L1029.05 221.7L985.75 246.7L942.44 221.7L942.44 171.7zM1029.05 221.7L1072.35 246.7L1072.35 296.7L1029.05 321.7L985.75 296.7L985.75 246.7zM1115.65 71.7L1158.95 96.7L1158.95 146.7L1115.65 171.7L1072.35 146.7L1072.35 96.7zM1115.65 371.7L1158.95 396.7L1158.95 446.7L1115.65 471.7L1072.35 446.7L1072.35 396.7zM1072.35 446.7L1115.65 471.7L1115.65 521.7L1072.35 546.7L1029.05 521.7L1029.05 471.7zM1072.35 746.7L1115.65 771.7L1115.65 821.7L1072.35 846.7L1029.05 821.7L1029.05 771.7zM1115.65 971.7L1158.95 996.7L1158.95 1046.7L1115.65 1071.7L1072.35 1046.7L1072.35 996.7zM1072.35 1046.7L1115.65 1071.7L1115.65 1121.7L1072.35 1146.7L1029.05 1121.7L1029.05 1071.7zM1158.95 446.7L1202.26 471.7L1202.26 521.7L1158.95 546.7L1115.65 521.7L1115.65 471.7zM1158.95 596.7L1202.26 621.7L1202.26 671.7L1158.95 696.7L1115.65 671.7L1115.65 621.7zM1158.95 746.7L1202.26 771.7L1202.26 821.7L1158.95 846.7L1115.65 821.7L1115.65 771.7zM1158.95 1046.7L1202.26 1071.7L1202.26 1121.7L1158.95 1146.7L1115.65 1121.7L1115.65 1071.7zM1288.86 221.7L1332.16 246.7L1332.16 296.7L1288.86 321.7L1245.56 296.7L1245.56 246.7zM1245.56 746.7L1288.86 771.7L1288.86 821.7L1245.56 846.7L1202.26 821.7L1202.26 771.7zM1245.56 1046.7L1288.86 1071.7L1288.86 1121.7L1245.56 1146.7L1202.26 1121.7L1202.26 1071.7zM1332.16 146.7L1375.47 171.7L1375.47 221.7L1332.16 246.7L1288.86 221.7L1288.86 171.7zM1332.16 746.7L1375.47 771.7L1375.47 821.7L1332.16 846.7L1288.86 821.7L1288.86 771.7zM1375.47 821.7L1418.77 846.7L1418.77 896.7L1375.47 921.7L1332.16 896.7L1332.16 846.7zM1418.77 -3.3L1462.07 21.7L1462.07 71.7L1418.77 96.7L1375.47 71.7L1375.47 21.7zM1462.07 71.7L1505.38 96.7L1505.38 146.7L1462.07 171.7L1418.77 146.7L1418.77 96.7zM1418.77 146.7L1462.07 171.7L1462.07 221.7L1418.77 246.7L1375.47 221.7L1375.47 171.7zM1462.07 221.7L1505.38 246.7L1505.38 296.7L1462.07 321.7L1418.77 296.7L1418.77 246.7zM1418.77 296.7L1462.07 321.7L1462.07 371.7L1418.77 396.7L1375.47 371.7L1375.47 321.7zM1462.07 521.7L1505.38 546.7L1505.38 596.7L1462.07 621.7L1418.77 596.7L1418.77 546.7zM1548.68 71.7L1591.98 96.7L1591.98 146.7L1548.68 171.7L1505.38 146.7L1505.38 96.7zM1505.38 146.7L1548.68 171.7L1548.68 221.7L1505.38 246.7L1462.07 221.7L1462.07 171.7zM1591.98 446.7L1635.28 471.7L1635.28 521.7L1591.98 546.7L1548.68 521.7L1548.68 471.7zM1591.98 596.7L1635.28 621.7L1635.28 671.7L1591.98 696.7L1548.68 671.7L1548.68 621.7zM1591.98 746.7L1635.28 771.7L1635.28 821.7L1591.98 846.7L1548.68 821.7L1548.68 771.7zM1635.28 971.7L1678.59 996.7L1678.59 1046.7L1635.28 1071.7L1591.98 1046.7L1591.98 996.7zM1721.89 221.7L1765.19 246.7L1765.19 296.7L1721.89 321.7L1678.59 296.7L1678.59 246.7zM1721.89 671.7L1765.19 696.7L1765.19 746.7L1721.89 771.7L1678.59 746.7L1678.59 696.7zM1721.89 971.7L1765.19 996.7L1765.19 1046.7L1721.89 1071.7L1678.59 1046.7L1678.59 996.7zM1678.59 1046.7L1721.89 1071.7L1721.89 1121.7L1678.59 1146.7L1635.28 1121.7L1635.28 1071.7zM1765.19 -3.3L1808.49 21.7L1808.49 71.7L1765.19 96.7L1721.89 71.7L1721.89 21.7zM1765.19 146.7L1808.49 171.7L1808.49 221.7L1765.19 246.7L1721.89 221.7L1721.89 171.7zM1808.49 371.7L1851.8 396.7L1851.8 446.7L1808.49 471.7L1765.19 446.7L1765.19 396.7zM1765.19 446.7L1808.49 471.7L1808.49 521.7L1765.19 546.7L1721.89 521.7L1721.89 471.7zM1808.49 671.7L1851.8 696.7L1851.8 746.7L1808.49 771.7L1765.19 746.7L1765.19 696.7zM1765.19 746.7L1808.49 771.7L1808.49 821.7L1765.19 846.7L1721.89 821.7L1721.89 771.7zM1895.1 371.7L1938.4 396.7L1938.4 446.7L1895.1 471.7L1851.8 446.7L1851.8 396.7zM1895.1 821.7L1938.4 846.7L1938.4 896.7L1895.1 921.7L1851.8 896.7L1851.8 846.7zM1895.1 971.7L1938.4 996.7L1938.4 1046.7L1895.1 1071.7L1851.8 1046.7L1851.8 996.7zM1851.8 1046.7L1895.1 1071.7L1895.1 1121.7L1851.8 1146.7L1808.49 1121.7L1808.49 1071.7zM1938.4 -3.3L1981.7 21.7L1981.7 71.7L1938.4 96.7L1895.1 71.7L1895.1 21.7zM1938.4 146.7L1981.7 171.7L1981.7 221.7L1938.4 246.7L1895.1 221.7L1895.1 171.7zM1938.4 746.7L1981.7 771.7L1981.7 821.7L1938.4 846.7L1895.1 821.7L1895.1 771.7zM1938.4 896.7L1981.7 921.7L1981.7 971.7L1938.4 996.7L1895.1 971.7L1895.1 921.7zM1938.4 1046.7L1981.7 1071.7L1981.7 1121.7L1938.4 1146.7L1895.1 1121.7L1895.1 1071.7z" stroke="rgba(8, 126, 139, 1)" stroke-width="2"></path></g><defs><mask id="SvgjsMask1028"><rect width="1920" height="1080" fill="#ffffff"></rect></mask></defs></svg>